# xmcd
# Track frame offsets:
# 150
# 16905
# 34497
# 47747
# 62332
# 80440
# 103862
# 129400
# 143137
# 157315
#
# Disc length: 2284 seconds
# Revision: 0
# Processed by: cddbd v1.4PL0 Copyright (c) Steve Scherf et al.
# Submitted via: VisiTrax 2.9.5.180 - For more info visit www.synapsa.com
#
DISCID=8508ea0a
DTITLE=Wille Dixon - What Happened To My Blues
DYEAR=1998
DGENRE=Blues
TTITLE0=Moon Cattin'
TTITLE1=What Happened To My Blues
TTITLE2=Pretty Baby
TTITLE3=Got To Love You Baby
TTITLE4=Shakin' The Shack
TTITLE5=Hold Me Babe
TTITLE6=It's Easy To Love
TTITLE7=Uh Huh Baby
TTITLE8=Put It All In There
TTITLE9=Hey Hey Pretty Mama
EXTD=Prevue CD PR 18\nRecorded 1976
EXTT0=
EXTT1=
EXTT2=
EXTT3=
EXTT4=
EXTT5=
EXTT6=
EXTT7=
EXTT8=
EXTT9=
PLAYORDER=
